<?xml version="1.0" encoding="UTF-8"?><svg version="1.1" viewBox="0 0 64 64" xmlns="http://www.w3.org/2000/svg" xmlns:xlink="http://www.w3.org/1999/xlink"><!--Generated by IJSVG (https://github.com/curthard89/IJSVG)--><path d="M7.1027,30.1984l11.9886,-6l-8.69779e-08,4.34719e-08c0.988037,-0.493825 2.18932,-0.0931875 2.68315,0.89485c0.493825,0.988037 0.0931875,2.18932 -0.89485,2.68315l-8.4125,4.2108l8.4129,4.2109l5.53378e-08,2.76573e-08c0.988065,0.493825 1.38873,1.69514 0.8949,2.6832c-0.493825,0.988065 -1.69513,1.38873 -2.6832,0.8949l-11.9886,-6l-1.83556e-07,-9.22672e-08c-0.988038,-0.496652 -1.38638,-1.70023 -0.889733,-2.68827c0.193196,-0.384343 0.505033,-0.69625 0.889333,-0.889532Zm26.9382,-12.7584l1.42008e-08,-4.87695e-08c0.308728,-1.06026 1.41851,-1.6695 2.47877,-1.36077c1.05282,0.306561 1.66231,1.40386 1.36623,2.45967l-7.9985,27.983l7.546e-08,-2.63792e-07c-0.303696,1.06165 -1.41053,1.6761 -2.47219,1.37241c-1.06101,-0.303511 -1.67548,-1.40926 -1.37288,-2.47053Zm8.1432,7.6557l8.29825e-08,-1.65943e-07c0.494756,-0.989379 1.69776,-1.39053 2.6873,-0.8961l12.0127,6.0119l7.82044e-08,3.93039e-08c0.989749,0.497427 1.38886,1.70302 0.891428,2.69277c-0.193609,0.38523 -0.506198,0.697819 -0.891428,0.891428l-12.0127,6.0117l1.23076e-07,-6.07058e-08c-0.992355,0.489469 -2.19361,0.0817985 -2.68308,-0.910556c-0.485829,-0.984975 -0.0881173,-2.17748 0.891689,-2.67365l8.4305,-4.22l-8.4305,-4.22l-2.02553e-07,-1.01441e-07c-0.988995,-0.495299 -1.38992,-1.69805 -0.89591,-2.6877Z" fill="#DCDCDC" fill-rule="evenodd"></path></svg>