<?xml version="1.0" encoding="UTF-8"?><svg version="1.1" viewBox="0 0 64 64" xmlns="http://www.w3.org/2000/svg" xmlns:xlink="http://www.w3.org/1999/xlink"><!--Generated by IJSVG (https://github.com/curthard89/IJSVG)--><path d="M55,38h-46h-4.37114e-08c-0.552285,-2.41411e-08 -1,-0.447715 -1,-1c0,0 0,0 0,0v-22l5.68434e-14,7.54979e-07c-4.16963e-07,-2.76142 2.23858,-5 5,-5h38l-2.18557e-07,7.10543e-15c2.76142,-1.20706e-07 5,2.23858 5,5v22v0c0,0.552285 -0.447715,1 -1,1Zm-46,2h46h-4.37114e-08c0.552285,-2.41411e-08 1,0.447715 1,1v0c0,2.76142 -2.23858,5 -5,5h-38l-2.18557e-07,-7.10543e-15c-2.76142,-1.20706e-07 -5,-2.23858 -5,-5c0,0 0,0 0,0l-2.13163e-14,1.11273e-07c8.33927e-08,-0.552285 0.447715,-1 1,-1Zm12,14c2.0249,-0.3439 3.3743,-1.1457 4,-5l-2.0979e-08,3.41322e-07c0.0330671,-0.537993 0.462007,-0.966933 1,-1h12l-5.40791e-09,-3.32847e-10c0.537974,0.0331107 0.966889,0.462026 1,1c0.625,3.8542 1.975,4.6561 4,5l-1.39605e-08,-9.03107e-10c0.537231,0.0347539 0.965246,0.462769 1,1v0c0,0.552285 -0.447715,1 -1,1h-22h-4.37114e-08c-0.552285,-2.41411e-08 -1,-0.447715 -1,-1c0,0 0,0 0,0l-1.13867e-08,1.76919e-07c0.0345819,-0.537309 0.462691,-0.965418 1,-1Z" fill="#E83855" fill-rule="evenodd"></path></svg>