<?xml version="1.0" encoding="UTF-8"?><svg version="1.1" viewBox="0 0 64 64" xmlns="http://www.w3.org/2000/svg" xmlns:xlink="http://www.w3.org/1999/xlink"><!--Generated by IJSVG (https://github.com/curthard89/IJSVG)--><path d="M32,54c-11.0456,0 -20,-4.0294 -20,-9v-1.5268l1.92556e-08,4.04711e-06c-0.00382332,-0.803344 0.644316,-1.45768 1.44766,-1.46151c0.333475,-0.00158709 0.657369,0.111457 0.917436,0.3202c3.4371,2.7823 10.0797,4.6681 17.6349,4.6681c7.5552,0 14.1977,-1.8858 17.635,-4.6681l9.54055e-08,-7.65638e-08c0.626546,-0.502809 1.54207,-0.4025 2.04488,0.224046c0.208675,0.260029 0.321689,0.583851 0.320122,0.917254v1.5268c5.75078e-10,4.9706 -8.9543,9 -20,9Zm0,-11c-11.0456,0 -20,-4.0294 -20,-9v-1.5268l1.92556e-08,4.04711e-06c-0.00382332,-0.803344 0.644316,-1.45768 1.44766,-1.46151c0.333475,-0.00158709 0.657369,0.111457 0.917436,0.3202c3.4371,2.7823 10.0797,4.6681 17.6349,4.6681c7.5552,0 14.1977,-1.8858 17.635,-4.6681l9.54055e-08,-7.65638e-08c0.626546,-0.502809 1.54207,-0.4025 2.04488,0.224046c0.208675,0.260029 0.321689,0.583851 0.320122,0.917254v1.5268c5.75071e-10,4.9706 -8.9543,9 -20,9Zm0,-11c-11.0456,0 -20,-4.0294 -20,-9v-4c0,-4.9706 8.9544,-9 20,-9c11.0456,0 20,4.0294 20,9v4c0,4.9706 -8.9543,9 -20,9Z" fill="#DCDCDC" fill-rule="evenodd"></path></svg>