<?xml version="1.0" encoding="UTF-8"?><svg version="1.1" viewBox="0 0 64 64" xmlns="http://www.w3.org/2000/svg" xmlns:xlink="http://www.w3.org/1999/xlink"><!--Generated by IJSVG (https://github.com/curthard89/IJSVG)--><path d="M55.0106,36.0208c-5.8093,0 -6.879,2.2984 -9.6324,3.6279c-5.0039,2.4158 -8.3679,5.527 -8.3679,11.3721c0,3.097 -0.028,5 -1,5c-1.775,0 -2.683,-1.8429 -3.5066,-3.2535l-6.79081e-09,2.22641e-09c-0.562217,0.184327 -1.15207,0.270056 -1.7435,0.2534c-2.2779,0 -14.75,-4.4979 -14.75,-7c0,-1.4689 1,-2.2589 1,-4v-0.0269l7.48926e-09,2.48013e-07c-0.0445515,-1.47536 -0.774086,-2.8457 -1.9732,-3.7064l-2.96526e-08,-2.12123e-08c-1.60458,-1.14785 -2.81855,-2.76017 -3.4782,-4.6195l2.85433e-08,-1.35906e-08c-0.483798,0.230356 -1.01256,0.350834 -1.5484,0.3528c-1.9194,0 -4,-2.3385 -4,-6c0,-3.6515 0.7179,-5 1.5,-5c1.0137,0 1.25,0.5 1.25,0.5c0,0 0.6936,-2.5094 2.1057,-2.5094l-5.64643e-08,-7.6416e-10c0.732214,0.00990945 1.3978,0.427287 1.7256,1.0821l-1.10391e-06,1.25096e-06c2.3761,-2.69263 5.82897,-4.1857 9.4183,-4.0726c14.5041,0 15.47,9 20,9c1.6777,0 3,-2.3806 3,-3c0,-1.9216 -9,-5.5351 -9,-14c0,-1.3225 1.0624,-2 2.5,-2c1.25,0 3.9185,1.6277 5.5,4c2.4166,3.6251 2.0494,8 5,10c1.1046,0.7489 3.92,0.6942 6,2c2.08,1.3058 3.3649,3.4738 4,4l-4.12505e-08,-3.57388e-08c0.585686,0.507429 0.945468,1.22699 1,2c1.68362e-06,0.9634 -2.1742,6 -4.9994,6Zm-24,8l-7.57785e-07,-1.4209e-08c-2.67497,-0.0501574 -5.30949,-0.66234 -7.7325,-1.7968l1.32452e-07,-4.84723e-07c-0.16018,0.586199 -0.250078,1.18937 -0.2678,1.7968c0,1.6728 1.2954,2.3146 6,4l-1.04385e-06,-3.53026e-07c1.0569,0.357441 2.07767,0.813935 3.0487,1.3634l1.64432e-07,-2.7473e-06c0.108992,-1.82102 0.311694,-3.63523 0.6073,-5.4354c-0.540996,0.0381057 -1.0857,0.0720057 -1.6557,0.0720057Z" fill="#DCDCDC" fill-rule="evenodd"></path></svg>