<?xml version="1.0" encoding="UTF-8"?><svg version="1.1" viewBox="0 0 64 64" xmlns="http://www.w3.org/2000/svg" xmlns:xlink="http://www.w3.org/1999/xlink"><!--Generated by IJSVG (https://github.com/curthard89/IJSVG)--><path d="M59.5381,30.7224l-4.8552,4.8529l1.31635e-08,-1.31608e-08c-0.585761,0.58564 -1.53534,0.58564 -2.1211,2.63216e-08l-2.0136,-2.0127l-1.02924e-07,-1.09469e-07c-0.316447,-0.336571 -0.452201,-0.804532 -0.365,-1.2582l6.48716e-09,-9.23805e-08c0.0917689,-1.30684 -0.457417,-2.57674 -1.4725,-3.4049c-1.5628,-1.5622 -3.2056,-1.9387 -3.9865,-1.1581l-1.6953,1.6946l8.37143e-08,-8.3689e-08c-0.781,0.780764 -2.047,0.780764 -2.828,1.67378e-07l-5.6562,-5.6533l-4.91663e-08,-4.91575e-08c-0.780572,-0.780432 -0.780685,-2.04588 -0.000252687,-2.82645c8.42543e-05,-8.42694e-05 0.000168516,-0.000168531 0.000252786,-0.000252786l2.9845,-2.9829l6.04037e-09,-6.15474e-09c0.373582,-0.380656 0.371621,-0.990953 -0.00440001,-1.3692c-3.8565,-3.9486 -8.3562,-2.7541 -11.735,-0.7384l5.2675e-08,-2.75945e-08c-0.37983,0.198979 -0.843899,0.136435 -1.1575,-0.156l-0.4352,-0.4349l3.32288e-08,3.39352e-08c-0.29397,-0.300219 -0.288905,-0.781904 0.0113142,-1.07587c0.00175362,-0.00171712 0.00351554,-0.00342574 0.00528569,-0.00512581c4.846,-4.8432 15.1171,-5.7884 19.71,-1.1983l7.0979,7.0947l5.44905e-09,5.78979e-09c0.316652,0.336454 0.452437,0.804521 0.365,1.2582l-1.11517e-07,1.5886e-06c-0.0917351,1.30681 0.457448,2.57666 1.4725,3.4048l-8.59808e-08,-1.05243e-07c0.829063,1.0148 2.09942,1.56361 3.4066,1.4717l-1.22324e-07,2.35724e-08c0.453877,-0.0874645 0.922153,0.048268 1.2589,0.3649l2.0135,2.0125l5.88057e-08,5.87447e-08c0.585504,0.584897 0.585996,1.53369 0.00109936,2.1192c-0.00036658,0.000366961 -0.000733351,0.000733731 -0.00110031,0.00110031Zm-25.3448,-4.2795l3.3674,3.3655l-3.38416e-08,-3.38298e-08c0.586812,0.586608 0.59734,1.5346 0.0237001,2.1341l-19.8909,20.7851l8.1861e-08,-8.55078e-08c-1.55569,1.625 -4.13415,1.68118 -5.75915,0.125485c-0.0209326,-0.0200398 -0.0416507,-0.0403025 -0.0621508,-0.0607845l-0.6737,-0.6732l1.48277e-07,1.48142e-07c-1.58942,-1.58797 -1.59059,-4.16375 -0.00262395,-5.75316c0.022219,-0.0222393 0.044695,-0.0442202 0.0674236,-0.0659385l20.7949,-19.8808l-1.24681e-07,1.1917e-07c0.599959,-0.573439 1.54802,-0.562916 2.1351,0.0236998Z" fill="#DCDCDC" fill-rule="evenodd"></path></svg>