<?xml version="1.0" encoding="UTF-8"?><svg version="1.1" viewBox="0 0 64 64" xmlns="http://www.w3.org/2000/svg" xmlns:xlink="http://www.w3.org/1999/xlink"><!--Generated by IJSVG (https://github.com/curthard89/IJSVG)--><path d="M10.4752,54.556l-8.5948e-08,-8.59874e-08c1.95143,1.95233 5.11605,1.95305 7.06838,0.00161955c0.000539917,-0.000539669 0.00107971,-0.00107946 0.00161938,-0.00161938l27,-27l2.12395e-08,-2.12311e-08c1.95266,-1.95188 1.95329,-5.11714 0.00140508,-7.06979c-0.00046828,-0.000468466 -0.000936654,-0.00093684 -0.00140512,-0.00140512l-1,-1l1.17241e-07,1.17252e-07c-1.95214,-1.95233 -5.11733,-1.95248 -7.06965,-0.000346645c-0.000115476,0.000115464 -0.000230946,0.000230934 -0.00034641,0.00034641l-27,27l-1.92873e-07,1.92823e-07c-1.95233,1.95182 -1.95273,5.11676 -0.00091176,7.06909c0.000304009,0.000304088 0.000608058,0.000608137 0.000912146,0.000912146Zm21.8282,-25.2422l7,-7l-4.59339e-08,4.5966e-08c0.390193,-0.390465 1.02304,-0.390686 1.41351,-0.000493723c0.000164601,0.000164486 0.000329145,0.00032903 0.000493631,0.000493631l1,1l1.4704e-08,1.46899e-08c0.390438,0.390064 0.390741,1.02279 0.00067652,1.41322c-0.000225408,0.000225624 -0.000450925,0.000451141 -0.000676549,0.000676549l-7,7l-1.58308e-08,1.58419e-08c-0.390193,0.390465 -1.02304,0.390686 -1.41351,0.000493599c-0.000164601,-0.000164486 -0.000329145,-0.00032903 -0.000493631,-0.000493631l-1,-1l-8.83232e-08,-8.82564e-08c-0.390438,-0.390142 -0.390677,-1.02293 -0.000534767,-1.41336c0.000178272,-0.000178407 0.000356613,-0.000356747 0.00053502,-0.00053502Zm-1.1571,-14.8385l-1.48622e-07,-2.83387e-08c-0.80597,-0.15368 -1.43632,-0.78403 -1.59,-1.59l-0.4523,-2.3733l1.84141e-08,9.6772e-08c-0.0623764,-0.327809 -0.378684,-0.542984 -0.706493,-0.480607c-0.243666,0.0463655 -0.434242,0.236942 -0.480607,0.480607l-0.4522,2.3729l-1.75463e-08,9.20209e-08c-0.15368,0.80597 -0.78403,1.43632 -1.59,1.59l-2.3729,0.452l-5.29971e-08,1.00844e-08c-0.327809,0.0623765 -0.542984,0.378684 -0.480607,0.706493c0.0463656,0.243666 0.236942,0.434242 0.480608,0.480607l2.3729,0.452l2.1107e-07,4.02461e-08c0.80597,0.15368 1.43632,0.78403 1.59,1.59l0.4522,2.373l-1.819e-08,-9.55943e-08c0.0623764,0.327809 0.378684,0.542984 0.706493,0.480607c0.243666,-0.0463655 0.434242,-0.236942 0.480607,-0.480607l0.4519,-2.3729l2.38716e-08,-1.25194e-07c0.15368,-0.80597 0.78403,-1.43632 1.59,-1.59l2.3728,-0.452l7.18639e-08,-1.36745e-08c0.327809,-0.0623765 0.542984,-0.378684 0.480607,-0.706493c-0.0463656,-0.243666 -0.236942,-0.434242 -0.480608,-0.480607Zm24,16l-1.48622e-07,-2.83387e-08c-0.80597,-0.15368 -1.43632,-0.78403 -1.59,-1.59l-0.4519,-2.3729l1.84141e-08,9.6772e-08c-0.0623764,-0.327809 -0.378684,-0.542984 -0.706493,-0.480607c-0.243666,0.0463655 -0.434242,0.236942 -0.480607,0.480607l-0.4521,2.373l-1.75463e-08,9.20209e-08c-0.15368,0.80597 -0.78403,1.43632 -1.59,1.59l-2.3729,0.452l-5.29971e-08,1.00844e-08c-0.327809,0.0623765 -0.542984,0.378684 -0.480607,0.706493c0.0463656,0.243666 0.236942,0.434242 0.480608,0.480607l2.3729,0.452l2.1107e-07,4.02461e-08c0.80597,0.15368 1.43632,0.78403 1.59,1.59l0.4521,2.3729l-1.819e-08,-9.55943e-08c0.0623764,0.327809 0.378684,0.542984 0.706493,0.480607c0.243666,-0.0463655 0.434242,-0.236942 0.480607,-0.480607l0.4519,-2.3729l2.38716e-08,-1.25194e-07c0.15368,-0.80597 0.78403,-1.43632 1.59,-1.59l2.373,-0.452l7.18639e-08,-1.36745e-08c0.327809,-0.0623765 0.542984,-0.378684 0.480607,-0.706493c-0.0463656,-0.243666 -0.236942,-0.434242 -0.480608,-0.480607Zm-3.4881,-20.5682l-0.5655,-3.3931l-1.06919e-08,-6.53138e-08c-0.052641,-0.321568 -0.355997,-0.539576 -0.677565,-0.486935c-0.250024,0.0409292 -0.446006,0.236911 -0.486935,0.486935l-0.5655,3.3931l7.22589e-09,-4.33642e-08c-0.210706,1.2645 -1.2016,2.25539 -2.4661,2.4661l-3.3931,0.5654l5.61634e-10,-9.22427e-11c-0.32154,0.0528094 -0.53939,0.35628 -0.48658,0.67782c0.0410233,0.249778 0.236802,0.445557 0.48658,0.48658l3.3931,0.5656l2.12e-07,3.53249e-08c1.26447,0.210694 2.25535,1.20154 2.4661,2.466l0.5655,3.3931l3.77954e-09,2.30881e-08c0.052641,0.321568 0.355997,0.539576 0.677565,0.486935c0.250024,-0.0409292 0.446006,-0.236911 0.486935,-0.486935l0.5655,-3.3931l-7.61301e-09,4.56826e-08c0.210707,-1.26437 1.20145,-2.25519 2.4658,-2.466l3.3932,-0.5656l1.79445e-08,-2.94718e-09c0.32154,-0.0528094 0.53939,-0.35628 0.48658,-0.67782c-0.0410233,-0.249778 -0.236802,-0.445557 -0.48658,-0.48658l-3.3932,-0.5654l-3.22647e-07,-5.37981e-08c-1.26438,-0.210823 -2.25513,-1.20169 -2.4658,-2.4661Z" fill="#DCDCDC" fill-rule="evenodd"></path></svg>