<?xml version="1.0" encoding="UTF-8"?><svg version="1.1" viewBox="0 0 64 64" xmlns="http://www.w3.org/2000/svg" xmlns:xlink="http://www.w3.org/1999/xlink"><!--Generated by IJSVG (https://github.com/curthard89/IJSVG)--><path d="M52,54h-40h-8.74228e-08c-1.10457,-4.82823e-08 -2,-0.895431 -2,-2c0,0 0,0 0,0v-8l2.84217e-14,3.01992e-07c-1.66785e-07,-1.10457 0.89543,-2 2,-2h40h-8.74228e-08c1.10457,-4.82823e-08 2,0.89543 2,2v8v8.74227e-08c0,1.10457 -0.895431,2 -2,2c-2.70922e-08,0 -6.03305e-08,0 -8.74228e-08,0Zm-30,-7v0c0,-0.552285 -0.447715,-1 -1,-1h-6h-4.37114e-08c-0.552285,2.41411e-08 -1,0.447715 -1,1c0,0 0,0 0,0v2l1.42109e-14,1.50996e-07c8.33927e-08,0.552285 0.447715,1 1,1h6h-4.37114e-08c0.552285,2.41411e-08 1,-0.447715 1,-1Zm30,-9h-40h-8.74228e-08c-1.10457,-4.82823e-08 -2,-0.895431 -2,-2c0,0 0,-7.10543e-15 0,-7.10543e-15v-8l2.84217e-14,3.01992e-07c-1.66785e-07,-1.10457 0.89543,-2 2,-2h40l-8.74228e-08,3.55271e-15c1.10457,-4.82823e-08 2,0.89543 2,2v8v8.74228e-08c0,1.10457 -0.895431,2 -2,2c-2.70922e-08,0 -6.03306e-08,0 -8.74228e-08,0Zm-30,-7v0c0,-0.552285 -0.447715,-1 -1,-1h-6h-4.37114e-08c-0.552285,2.41411e-08 -1,0.447715 -1,1c0,0 0,0 0,0v2l1.42109e-14,1.50996e-07c8.33927e-08,0.552285 0.447715,1 1,1h6h-4.37114e-08c0.552285,2.41411e-08 1,-0.447715 1,-1Zm30,-9h-40l-8.74228e-08,-3.55271e-15c-1.10457,-4.82823e-08 -2,-0.895431 -2,-2c0,0 0,0 0,0v-8l2.84217e-14,3.01992e-07c-1.66785e-07,-1.10457 0.89543,-2 2,-2h40l-8.74228e-08,1.77636e-15c1.10457,-4.82823e-08 2,0.89543 2,2v8v8.74228e-08c0,1.10457 -0.895431,2 -2,2c-2.70922e-08,0 -6.03305e-08,0 -8.74228e-08,-3.55271e-15Zm-30,-7v0c0,-0.552285 -0.447715,-1 -1,-1h-6l-4.37114e-08,1.77636e-15c-0.552285,2.41411e-08 -1,0.447715 -1,1c0,0 0,0 0,0v2l1.06581e-14,1.50996e-07c8.33927e-08,0.552285 0.447715,1 1,1h6h-4.37114e-08c0.552285,2.41411e-08 1,-0.447715 1,-1Z" fill="#DCDCDC" fill-rule="evenodd"></path></svg>