<?xml version="1.0" encoding="UTF-8"?><svg version="1.1" viewBox="0 0 64 64" xmlns="http://www.w3.org/2000/svg" xmlns:xlink="http://www.w3.org/1999/xlink"><!--Generated by IJSVG (https://github.com/curthard89/IJSVG)--><path d="M45,56h-26l-2.18557e-07,-7.10543e-15c-2.76142,-1.20706e-07 -5,-2.23858 -5,-5c0,0 0,0 0,0v-38l5.68434e-14,7.54979e-07c-4.16963e-07,-2.76142 2.23858,-5 5,-5h26l-2.18557e-07,7.10543e-15c2.76142,-1.20706e-07 5,2.23858 5,5v38h7.10543e-15c0,2.76142 -2.23858,5 -5,5Zm-13,-10h-1.31134e-07c-1.65685,7.24234e-08 -3,1.34315 -3,3c7.24234e-08,1.65685 1.34315,3 3,3c1.65685,-7.24234e-08 3,-1.34315 3,-3v1.31134e-07c0,-1.65685 -1.34315,-3 -3,-3Z" fill="#E83855" fill-rule="evenodd"></path></svg>