<?xml version="1.0" encoding="UTF-8"?><svg version="1.1" viewBox="0 0 64 64" xmlns="http://www.w3.org/2000/svg" xmlns:xlink="http://www.w3.org/1999/xlink"><!--Generated by IJSVG (https://github.com/curthard89/IJSVG)--><path d="M52,48h-40l-1.74846e-07,-7.10543e-15c-2.20914,-9.65645e-08 -4,-1.79086 -4,-4c0,0 0,0 0,0v-26l4.9738e-14,6.03983e-07c-3.33571e-07,-2.20914 1.79086,-4 4,-4h40l-1.74846e-07,7.10543e-15c2.20914,-9.65645e-08 4,1.79086 4,4v26h7.10543e-15c0,2.20914 -1.79086,4 -4,4Zm-30,2h20h-8.74228e-08c1.10457,-4.82823e-08 2,0.89543 2,2c4.82823e-08,1.10457 -0.89543,2 -2,2h-20h-8.74228e-08c-1.10457,-4.82823e-08 -2,-0.895431 -2,-2c4.82823e-08,-1.10457 0.895431,-2 2,-2Z" fill="#E83855" fill-rule="evenodd"></path></svg>